/* XPM */
static char * 42man_up_g_xpm[] = {
"32 32 24 1",
" 	c #2C2C2C",
".	c #313131",
"+	c #3C3C3C",
"@	c #3A3A3A",
"#	c #2F2F2F",
"$	c #2A2A2A",
"%	c #282828",
"&	c #222222",
"*	c #272727",
"=	c #303030",
"-	c #2B2B2B",
";	c #2E2E2E",
">	c #3B3B3B",
",	c #292929",
"'	c #241F0D",
")	c #98971A",
"!	c #B8BB26",
"~	c #323232",
"{	c #2926BB",
"]	c #262626",
"^	c #3E3E3E",
"/	c #333333",
"(	c #2D2D2D",
"_	c #3D3D3D",
"        .+@.#$%&&*+@.=$-        ",
"       ;+>.=$,&&*+@.=$$         ",
"      .+@.#$%&&*+@.=$-          ",
"     ;+>.=$,&&*+@.=$$           ",
"    .+@.#$%&&*+@.=$-            ",
"   #+>.=$,&&%+@.=$$             ",
"  .+@.#$%&''+@.=$-''''''        ",
" #+>.=$,&')'@.=$- '))))''       ",
".+@.#$%'')))''>>; ')!)))''      ",
"+>.=$,&')))!)''+@'')!!)))'     #",
"@.#$%&''))!!!)'~>')!!!!))''   =+",
".=$,&&'))!!{!)'''')!!!!!))'  ;++",
"#$%&&*'))!{{{!)'')!!!!!!))' =+@.",
"$,&&%''))!!{!!)'')!!!!!!))''+>..",
"%&&]+'))!!!!!!!))!!!!!!!!))'@.=$",
"&&%+@'))!!!!!!!))!!!!!!!!))'.=$$",
"&]+@.'))!!!!!!!!!!!!!!!!!))'=$%&",
"%+@.=''))!!!!!!!!!!!!!!!))''$,&&",
"+@.=$$'))!!!!!!!!!!!!!!!))'$%&&]",
"@.=$- '))!!!!!!!!!!!!!!!))',&&]^",
".=$$  ''))!!!!!!!!!!!!!))''&&]++",
"=$-    ')))!!!!!!!!!!!)))'&&]+@/",
"$$     '')))!!!!!!!!!)))''&]+@./",
"-       '')))))!!!)))))''&]+@.=$",
"         ''')))))))))'''&]+@.=$$",
"           '''')))''''&&]+@.=$$ ",
"              '''''$%&&]+@.=$$  ",
"             ;+>.=$,&&*+@.=$$   ",
"            =+@.=$%&&]+@.=$$    ",
"           ;+>.=$,&&*+@.=$$     ",
"          =+@.=$%&&]+@.=$$      ",
"(((((((((#_+~.-$&&%_>~=--(((((( "};
