/* XPM */
static char * collectible_xpm[] = {
"32 32 47 1",
" 	c #2C2C2C",
".	c #313131",
"+	c #3C3C3C",
"@	c #3A3A3A",
"#	c #2F2F2F",
"$	c #2A2A2A",
"%	c #282828",
"&	c #222222",
"*	c #272727",
"=	c #303030",
"-	c #2B2B2B",
";	c #2E2E2E",
">	c #3B3B3B",
",	c #FFC390",
"'	c #FFA05C",
")	c #B35E2E",
"!	c #FF6211",
"~	c #FF8324",
"{	c #FF8C31",
"]	c #FF9645",
"^	c #FF781B",
"/	c #FF6C11",
"(	c #FFB16D",
"_	c #FEDCBB",
":	c #A19F9D",
"<	c #8BA6A8",
"[	c #292929",
"}	c #33A24A",
"|	c #0C9441",
"1	c #B3B7B5",
"2	c #58B861",
"3	c #CBCAC8",
"4	c #044D89",
"5	c #6D7683",
"6	c #898A8F",
"7	c #063770",
"8	c #3E5F88",
"9	c #E0DEDC",
"0	c #08427B",
"a	c #262626",
"b	c #FEEDDE",
"c	c #3E3E3E",
"d	c #333333",
"e	c #F85611",
"f	c #2D2D2D",
"g	c #3D3D3D",
"h	c #323232",
"        .+@.#$%&&*+@.=$-        ",
"       ;+>.=,,,')',,=$$         ",
"      .+@.!~{']^/^{]~/,         ",
"     ;+>.]/~](]^/^{']^^         ",
"    .+@.#!^{(,'^/^],({/,        ",
"   #+>.=,((,,,,__,',(])]        ",
"  .+@.#$(',(__,'{(__(:<:        ",
" #+>.=$[,)^_,(}|}^'(_:1:        ",
".+@.#$%&,),,'2}|})11,311        ",
"+>.=$[&&:(:,'22)!,:453<)       #",
"@.#$%&&*,671,,{(1<<8<18'      =+",
".=$[&&%+,7595596661<1<7(     ;++",
"#$%&&*+@,799<41533816<5'    =+@.",
"$[&&%+@.,783<4<5<:013<1'   ;+>..",
"%&&a+@.=,76638<58559(],]  =+@.=$",
"&&%+@.=$,8683<8111,',,(] ;+>.=$$",
"&a+@.=$$(65<4<,'!/'({~(]=+@.=$%&",
"%+@.=$- ((8b1,{/!~,{{~]'+>.=$[&&",
"+@.=$$  ({1__'{/!(~~({']@.=$%&&a",
"@.=$-   (!^13__,,,{~'{'{.=$[&&ac",
".=$$    (!^(1113,(~^{{'{=$%&&a++",
"=$-     (!^{',11((]{{(^{$[&&a+@d",
"$$      (!^{''{/!^,,(~/]%&&a+@.d",
"-       (!^{''{/!/~]]~/]&&a+@.=$",
"        (!^{''{/!/~']~/]&a+@.=$$",
"        (!^{''{/!/~']~/]a+@.=$$ ",
"        (!^{]'{/!/~']~/]+@.=$$  ",
"        (!^{]'{/!/~']~/]@.=$$   ",
"        (!^{]'{/!/~']~/].=$$    ",
"          )'']^ee!{]]](.=$$     ",
"          =+@.=$%&&a+@.=$$      ",
"fffffffff#g+h.-$&&%g>h=--ffffff "};
