/* XPM */
static char * fanta_xpm[] = {
"32 32 31 1",
" 	c #FFFFFF",
".	c #FFA05C",
"+	c #FF8C31",
"@	c #FF9645",
"#	c #FF8324",
"$	c #063770",
"%	c #FF6211",
"&	c #EEEFEF",
"*	c #FF6C11",
"=	c #FF781B",
"-	c #E6541A",
";	c #044D89",
">	c #F85611",
",	c #0C9441",
"'	c #08427B",
")	c #FFB16D",
"!	c #FFC390",
"~	c #E0DEDC",
"{	c #FEEDDE",
"]	c #B3B7B5",
"^	c #CBCAC8",
"/	c #FEDCBB",
"(	c #A19F9D",
"_	c #58B861",
":	c #898A8F",
"<	c #6D7683",
"[	c #33A24A",
"}	c #3E5F88",
"|	c #B35E2E",
"1	c #8BA6A8",
"2	c #5E5948",
" && && &  & && && &  & && && &  ",
"&  &  & &~((!!!.|.!!((~  &  & &&",
"&  &  & &/%#+.@=*=+@#*!  &  & &&",
" && && & @*#@)@=*=+.@=={& && &  ",
"&  &  & /%=+)!.=*=@!)+*! &  & &&",
"&  &  & !))!!!!//!.!)@|@ &  &  &",
" && && &).!)//!.+)//)(1(& && &  ",
"&  &  & !|=/!)[,[=.)/(]( &  & &&",
" && && &!|!!._[,[|]]!^]]& && &  ",
" && &  &()(!.__|%!(;<^1|& && &  ",
"&  &  & !:$]!!+)]11}1]}. &  & &&",
" && && &!$<~<<~:::]1]1$)& && &  ",
"&  &  & !$~~1;]<^^}]:1<. &  & &&",
"&  &  & !$}^1;1<1(']^1]. &  & &&",
" && && &!$::^}1<}<<~)@!@& && &  ",
"&  &  & !}:}^1}]]]!.!!)@ &  & &&",
"&  &  & ):<1;1!.%*.)+#)@ &  & &&",
" && && &))}{]!+*%#!++#@.& && &  ",
"&  &  & )+]//.+*%)##)+.@ &  & &&",
" && && &)%=]^//!!!+#.+.+& && &  ",
" && && &)%=)]]]^!)#=++.+& && &  ",
"&  &  & )%=+.!]]))@++)=+ &  & &&",
" && && &)%=+..+*%=!!)#*@& && &  ",
"&  &  & )%=+..+*%*#@@#*@ &  & &&",
"&  &  & )%=+..+*%*#.@#*@ &  & &&",
" && && &)%=+..+*%*#.@#*@& && &  ",
"&  &  & )%=+@.+*%*#.@#*@ &  & &&",
"&  &  & )%=+@.+*%*#.@#*@ &  & &&",
" && && &)%=+@.+*%*#.@#*@& && &  ",
"&  &  & {(|..@=>>%+@@@){ &  & &&",
" && &  & &]]~&^((]&~](&&& && &  ",
" && && &  & &&&~&&&  & && && &  "};
