/* XPM */
static char * coin_green_xpm[] = {
"32 32 32 1",
" 	c #2C2C2C",
".	c #313131",
"+	c #3C3C3C",
"@	c #3A3A3A",
"#	c #2F2F2F",
"$	c #2A2A2A",
"%	c #282828",
"&	c #222222",
"*	c #272727",
"=	c #303030",
"-	c #2B2B2B",
";	c #2E2E2E",
">	c #3B3B3B",
",	c #292929",
"'	c #4FAA5A",
")	c #ACC756",
"!	c #356D67",
"~	c #356E68",
"{	c #ABC656",
"]	c #4EA859",
"^	c #4FA95A",
"/	c #262626",
"(	c #356D68",
"_	c #4FA959",
":	c #4EA959",
"<	c #4EA758",
"[	c #3E3E3E",
"}	c #4EA759",
"|	c #333333",
"1	c #2D2D2D",
"2	c #3D3D3D",
"3	c #323232",
"        .+@.#$%&&*+@.=$-        ",
"       ;+>.=$,&&*+@.=$$         ",
"      .+@.%%%%%%%%%%%%          ",
"     ;+>.=%%%%%%%%%%%%          ",
"    .+@.%%''''''''))))%%        ",
"   #+>.=%%''''''''))))%%        ",
"  .+@.%%''''''''''''''))%%      ",
" #+>.=%%''''''''''''''))%%      ",
".+@.%%''''''!~~~~~~~''''){%%    ",
"+>.=%%''''''~~~~~~~~''''))%%   #",
"@.%%''''''~~''''))))~~''''''%%=+",
".=%%''''''~~''''))))~~''''''%%++",
"#$%%''''!~]'''''''''))~!''''%%@.",
"$,%%''''~~''''''''''))~~''''%%..",
"%&%%''''~~^'''''''''''~~''''%%=$",
"&&%%''''~~''''''''''''~~''''%%$$",
"&/%%''''(~''''_'''''^'~~''''%%%&",
"%+%%''''~~:'''^'''''^'~~''''%%&&",
"+@%%''''!~''''''''''''~~''''%%&/",
"@.%%''''~~<:''''''''':~~''''%%/[",
".=%%))''''~~]'''''''~~''''''%%++",
"=$%%))''''~~}''''''}~~''''''%%@|",
"$$  %%))''''~~~~~~~~''''''%%+@.|",
"-   %%))''''~~~~~~~~''''''%%@.=$",
"      %%))''''''''''''''%%+@.=$$",
"      %%){''''''''''''''%%@.=$$ ",
"        %%))))''''''''%%+@.=$$  ",
"        %%))))''''''':%%@.=$$   ",
"          %%%%%%%%%%%%+@.=$$    ",
"          %%%%%%%%%%%%@.=$$     ",
"          =+@.=$%&&/+@.=$$      ",
"111111111#2+3.-$&&%2>3=--111111 "};
