/* XPM */
static char * coin_greener_xpm[] = {
"32 32 32 1",
" 	c #2C2C2C",
".	c #313131",
"+	c #3C3C3C",
"@	c #3A3A3A",
"#	c #2F2F2F",
"$	c #2A2A2A",
"%	c #282828",
"&	c #222222",
"*	c #272727",
"=	c #303030",
"-	c #2B2B2B",
";	c #2E2E2E",
">	c #3B3B3B",
",	c #292929",
"'	c #58C435",
")	c #B9D647",
"!	c #346E54",
"~	c #346F54",
"{	c #B8D547",
"]	c #346E53",
"^	c #57C135",
"/	c #58C335",
"(	c #262626",
"_	c #58C235",
":	c #57C235",
"<	c #57C035",
"[	c #3E3E3E",
"}	c #333333",
"|	c #57C334",
"1	c #2D2D2D",
"2	c #3D3D3D",
"3	c #323232",
"        .+@.#$%&&*+@.=$-        ",
"       ;+>.=$,&&*+@.=$$         ",
"      .+@.%%%%%%%%%%%%          ",
"     ;+>.=%%%%%%%%%%%%          ",
"    .+@.%%''''''''))))%%        ",
"   #+>.=%%''''''''))))%%        ",
"  .+@.%%''''''''''''''))%%      ",
" #+>.=%%''''''''''''''))%%      ",
".+@.%%''''''!~~~~~~~''''){%%    ",
"+>.=%%''''''~~~~~~~~''''))%%   #",
"@.%%''''''~~''''))))~~''''''%%=+",
".=%%''''''~~''''))))~~''''''%%++",
"#$%%'''']~^'''''''''))~!''''%%@.",
"$,%%''''~~''''''''''))~~''''%%..",
"%&%%''''~~/'''''''''''~~''''%%=$",
"&&%%''''~~''''''''''''~~''''%%$$",
"&(%%''''!~''''_'''''/'~~''''%%%&",
"%+%%''''~~:'''/'''''/'~~''''%%&&",
"+@%%'''']~''''''''''''~~''''%%&(",
"@.%%''''~~<:''''''''':~~''''%%([",
".=%%))''''~~:'''''''~~''''''%%++",
"=$%%))''''~~^''''''<~~''''''%%@}",
"$$  %%))''''~~~~~~~~''''''%%+@.}",
"-   %%))''''~~~~~~~~''''''%%@.=$",
"      %%))''''''''''''''%%+@.=$$",
"      %%){''''''''''''''%%@.=$$ ",
"        %%))))''''''''%%+@.=$$  ",
"        %%))))'''''''|%%@.=$$   ",
"          %%%%%%%%%%%%+@.=$$    ",
"          %%%%%%%%%%%%@.=$$     ",
"          =+@.=$%&&(+@.=$$      ",
"111111111#2+3.-$&&%2>3=--111111 "};
