/* XPM */
static char * collectible_xpm[] = {
"32 32 28 1",
" 	c #282828",
".	c #FFC390",
"+	c #FFA05C",
"@	c #B35E2E",
"#	c #FF6211",
"$	c #FF8324",
"%	c #FF8C31",
"&	c #FF9645",
"*	c #FF781B",
"=	c #FF6C11",
"-	c #FFB16D",
";	c #FEDCBB",
">	c #A19F9D",
",	c #8BA6A8",
"'	c #33A24A",
")	c #0C9441",
"!	c #B3B7B5",
"~	c #58B861",
"{	c #CBCAC8",
"]	c #044D89",
"^	c #6D7683",
"/	c #898A8F",
"(	c #063770",
"_	c #3E5F88",
":	c #E0DEDC",
"<	c #08427B",
"[	c #FEEDDE",
"}	c #F85611",
"                                ",
"            ...+@+..            ",
"          #$%+&*=*%&$=.         ",
"         &=$&-&*=*%+&**         ",
"         #*%-.+*=*&.-%=.        ",
"        .--....;;.+.-&@&        ",
"        -+.-;;.+%-;;->,>        ",
"        .@*;.-')'*+-;>!>        ",
"        .@..+~')'@!!.{!!        ",
"        >->.+~~@#.>]^{,@        ",
"        ./(!..%-!,,_,!_+        ",
"        .(^:^^:///!,!,(-        ",
"        .(::,]!^{{_!/,^+        ",
"        .(_{,],^,><!{,!+        ",
"        .(//{_,^_^^:-&.&        ",
"        ._/_{,_!!!.+..-&        ",
"        -/^,],.+#=+-%$-&        ",
"        --_[!.%=#$.%%$&+        ",
"        -%!;;+%=#-$$-%+&        ",
"        -#*!{;;...%$+%+%        ",
"        -#*-!!!{.-$*%%+%        ",
"        -#*%+.!!--&%%-*%        ",
"        -#*%++%=#*..-$=&        ",
"        -#*%++%=#=$&&$=&        ",
"        -#*%++%=#=$+&$=&        ",
"        -#*%++%=#=$+&$=&        ",
"        -#*%&+%=#=$+&$=&        ",
"        -#*%&+%=#=$+&$=&        ",
"        -#*%&+%=#=$+&$=&        ",
"          @++&*}}#%&&&-         ",
"                                ",
"                                "};
