/* XPM */
static char * exit_unlocked_xpm[] = {
"32 32 286 2",
"  	c #2C2C2C",
". 	c #313131",
"+ 	c #3C3C3C",
"@ 	c #3A3A3A",
"# 	c #2F2F2F",
"$ 	c #2A2A2A",
"% 	c #282828",
"& 	c #222222",
"* 	c #272727",
"= 	c #303030",
"- 	c #2B2B2B",
"; 	c #2E2E2E",
"> 	c #3B3B3B",
", 	c #292929",
"' 	c #262626",
") 	c #84B872",
"! 	c #83B770",
"~ 	c #81B66F",
"{ 	c #80B56D",
"] 	c #7FB56C",
"^ 	c #7EB46A",
"/ 	c #7DB269",
"( 	c #7CB168",
"_ 	c #79B067",
": 	c #79AF66",
"< 	c #78AE64",
"[ 	c #76AE63",
"} 	c #75AC61",
"| 	c #74AB5F",
"1 	c #73AA5F",
"2 	c #71A95D",
"3 	c #70A85C",
"4 	c #6FA85B",
"5 	c #6DA659",
"6 	c #6CA558",
"7 	c #6BA456",
"8 	c #69A355",
"9 	c #68A353",
"0 	c #68A153",
"a 	c #66A151",
"b 	c #659F4F",
"c 	c #639F4F",
"d 	c #629D4C",
"e 	c #619C4B",
"f 	c #609C4A",
"g 	c #5E9B49",
"h 	c #5D9947",
"i 	c #80B56E",
"j 	c #7FB46D",
"k 	c #7EB36B",
"l 	c #7AB067",
"m 	c #79AF65",
"n 	c #76AD63",
"o 	c #75AD61",
"p 	c #73AB60",
"q 	c #73AA5E",
"r 	c #6EA85B",
"s 	c #6CA658",
"t 	c #6AA355",
"u 	c #68A253",
"v 	c #67A253",
"w 	c #64A050",
"x 	c #639F4E",
"y 	c #609B4B",
"z 	c #5D9A47",
"A 	c #5B9946",
"B 	c #81B66E",
"C 	c #81B56D",
"D 	c #7FB46C",
"E 	c #7EB46B",
"F 	c #7BB168",
"G 	c #77AD63",
"H 	c #75AC62",
"I 	c #74AB60",
"J 	c #6FA85C",
"K 	c #6DA65A",
"L 	c #6DA658",
"M 	c #66A051",
"N 	c #649F50",
"O 	c #639E4E",
"P 	c #5F9C49",
"Q 	c #5F9B49",
"R 	c #5D9948",
"S 	c #5C9846",
"T 	c #5A9744",
"U 	c #5C8050",
"V 	c #5E8850",
"W 	c #628E53",
"X 	c #6DA15A",
"Y 	c #71AA5D",
"Z 	c #70A85B",
"` 	c #609050",
" .	c #659952",
"..	c #5C8B4B",
"+.	c #558545",
"@.	c #374B31",
"#.	c #548C41",
"$.	c #599643",
"%.	c #80B46C",
"&.	c #5B804F",
"*.	c #77AB65",
"=.	c #76AA64",
"-.	c #75A962",
";.	c #73A860",
">.	c #75AB62",
",.	c #4B6B40",
"'.	c #71A85D",
").	c #6CA359",
"!.	c #578248",
"~.	c #6BA457",
"{.	c #629850",
"].	c #5D914B",
"^.	c #65A050",
"/.	c #629B4C",
"(.	c #5F994A",
"_.	c #5D9749",
":.	c #48703A",
"<.	c #5B9545",
"[.	c #599444",
"}.	c #589342",
"|.	c #589543",
"1.	c #589542",
"2.	c #5B7F4E",
"3.	c #7AB066",
"4.	c #78AF65",
"5.	c #77AE63",
"6.	c #6FA45B",
"7.	c #57824A",
"8.	c #4B6C3F",
"9.	c #6BA556",
"0.	c #6AA354",
"a.	c #69A254",
"b.	c #60974E",
"c.	c #5B914A",
"d.	c #629D4D",
"e.	c #49743B",
"f.	c #5A9845",
"g.	c #579541",
"h.	c #597E4D",
"i.	c #78AF63",
"j.	c #74AC5F",
"k.	c #72AB5E",
"l.	c #619150",
"m.	c #568148",
"n.	c #669D52",
"o.	c #67A152",
"p.	c #60974D",
"q.	c #5B8F48",
"r.	c #609C4C",
"s.	c #5F9B4A",
"t.	c #48733A",
"u.	c #599743",
"v.	c #589641",
"w.	c #569441",
"x.	c #569440",
"y.	c #597E4C",
"z.	c #6B9E59",
"A.	c #70A95C",
"B.	c #6FA75B",
"C.	c #4B6E3F",
"D.	c #598648",
"E.	c #68A354",
"F.	c #66A252",
"G.	c #5F954B",
"H.	c #5A8F47",
"I.	c #609B4A",
"J.	c #5E9A49",
"K.	c #477139",
"L.	c #589541",
"M.	c #55933F",
"N.	c #54923E",
"O.	c #587D4B",
"P.	c #70A35E",
"Q.	c #6FA25C",
"R.	c #6DA25B",
"S.	c #6DA159",
"T.	c #6FA75A",
"U.	c #6DA458",
"V.	c #3A4F33",
"W.	c #47683B",
"X.	c #649F4F",
"Y.	c #5D944A",
"Z.	c #598E46",
"`.	c #5F9A49",
" +	c #467138",
".+	c #589642",
"++	c #579440",
"@+	c #56933F",
"#+	c #53913D",
"$+	c #577C4A",
"%+	c #72AA5E",
"&+	c #6EA75A",
"*+	c #6EA759",
"=+	c #4F7542",
"-+	c #649950",
";+	c #588847",
">+	c #5C9449",
",+	c #578E44",
"'+	c #5D9A48",
")+	c #457137",
"!+	c #569540",
"~+	c #569340",
"{+	c #54933E",
"]+	c #53923D",
"^+	c #51903B",
"/+	c #77AE64",
"(+	c #567C49",
"_+	c #619350",
":+	c #629750",
"<+	c #69A253",
"[+	c #527E43",
"}+	c #61984D",
"|+	c #5B9247",
"1+	c #578D44",
"2+	c #5C9946",
"3+	c #5B9844",
"4+	c #599744",
"5+	c #456F36",
"6+	c #55923E",
"7+	c #53923C",
"8+	c #52903B",
"9+	c #508F3A",
"0+	c #557B48",
"a+	c #6EA45B",
"b+	c #6EA459",
"c+	c #6CA259",
"d+	c #6AA157",
"e+	c #6DA558",
"f+	c #6AA256",
"g+	c #537C44",
"h+	c #669F51",
"i+	c #3C5734",
"j+	c #5B9146",
"k+	c #558C43",
"l+	c #436F35",
"m+	c #52923C",
"n+	c #51913C",
"o+	c #50903A",
"p+	c #4F8E38",
"q+	c #547A48",
"r+	c #578148",
"s+	c #4B703F",
"t+	c #5D9349",
"u+	c #507E40",
"v+	c #538442",
"w+	c #2A2E29",
"x+	c #4C7E3C",
"y+	c #436E34",
"z+	c #282928",
"A+	c #51913B",
"B+	c #518F39",
"C+	c #4E8F38",
"D+	c #4F8E37",
"E+	c #6EA85A",
"F+	c #6DA759",
"G+	c #6DA557",
"H+	c #649E4E",
"I+	c #609C4B",
"J+	c #5E9A48",
"K+	c #569541",
"L+	c #56943F",
"M+	c #4E8E37",
"N+	c #4D8D36",
"O+	c #68A254",
"P+	c #659F50",
"Q+	c #619D4B",
"R+	c #5E9B48",
"S+	c #5B9947",
"T+	c #5B9745",
"U+	c #55943F",
"V+	c #53913C",
"W+	c #4E8D36",
"X+	c #4D8C36",
"Y+	c #4B8B35",
"Z+	c #6EA659",
"`+	c #66A050",
" @	c #609D4B",
".@	c #579542",
"+@	c #52913B",
"@@	c #4F8F38",
"#@	c #4E8D37",
"$@	c #4C8C35",
"%@	c #4B8B33",
"&@	c #2D2D2D",
"*@	c #3D3D3D",
"=@	c #323232",
"                . + @ . # $ % & & * + @ . = $ -                 ",
"              ; + > . = $ , & & * + @ . = $ $                   ",
"            . + @ . # $ % & & * + @ . = $ -                     ",
"          ; + > . = $ , & & * + @ . = $ $                       ",
"        . + @ . # $ % & & * + @ . = $ -                         ",
"      # + > . = $ , & & % + @ . = $ $                           ",
"    . + @ . # $ % & & ' + @ . = $ -                             ",
"  # + > . = $ , & & % + @ . = $ -                               ",
") ! ~ { ] ^ / ( _ : < [ } | 1 2 3 4 5 6 7 8 9 0 a b c d e f g h ",
"! ~ i j k / ( l m < n o p q 2 4 r 5 s 7 t u v a w x d e y g z A ",
"B C D E / F l m < G H I q 2 J 4 K L 7 t u u M N O d e P Q R S T ",
"C U % % % % % V W % X 1 Y Z ` %  ...% % % +.@.% % % % % % % #.$.",
"%.&.% *.=.-.;.>.H ,.% '.Z ).% !.~.t {.% ].^./.(._.:.% <.[.}.|.1.",
"k 2.% 3.4.5.G o I 6.% 7.4 8.% 9.0.a.b.% c.O d.e Q e.% S f.$.1.g.",
"/ h.% m i.n } j.k.2 l.% m.% n.8 a.o.p.% q.d.r.s.g t.% T u.v.w.x.",
"( y.% % % % % z.2 A.B.C.% D.t E.F.a G.% H.e I.J.z K.% $.L.w.M.N.",
"3.O.% P.Q.R.S.3 A.T.U.V.% W.u o.M X.Y.% Z.s.`.h A  +% .+++@+N.#+",
"m $+% } I %+2 4 &+*+=+% -+% ;+a w O >+% ,+Q '+S f.)+% !+~+{+]+^+",
"/+(+% p q Y Z &+5 _+% :+<+[+% }+O d.|+% 1+R 2+3+4+5+% x.6+7+8+9+",
"n 0+% a+b+c+d+e+f+% g+u o.h+i+% d e j+% k+S T $.1.l+% {+m+n+o+p+",
"} q+% % % % % r+s+% 0 o.a X.t+% u+v+% % w+x+$.1.!+y+z+7+A+B+C+D+",
"I q Y Z E+F+G+~.8 u o.M ^.H+d.I+s.J+J+S T u.1.K+L+6+7+^+o+p+M+N+",
"q 2 J &+F+6 7 8 O+o.M P+O d.Q+s.R+z S+T+u..+x.U+{+V+A+o+p+W+X+Y+",
"2 3 E+Z+6 7 8 <+o.`+b x d  @s.g h S T $..@x.L+{+#++@9+@@#@X+$@%@",
"                                = + @ . = $ % & & ' + @ . = $ $ ",
"                              ; + > . = $ , & & ' + @ . = $ $   ",
"                            = + @ . = $ % & & ' + @ . = $ $     ",
"                          ; + > . = $ , & & * + @ . = $ $       ",
"                        = + @ . = $ % & & ' + @ . = $ $         ",
"                      ; + > . = $ , & & * + @ . = $ $           ",
"                    = + @ . = $ % & & ' + @ . = $ $             ",
"&@&@&@&@&@&@&@&@&@# *@+ =@. - $ & & % *@> =@= - - &@&@&@&@&@&@  "};
