/* XPM */
static char * exit_unlocked_xpm[] = {
"32 32 23 1",
" 	c #2C2C2C",
".	c #313131",
"+	c #3C3C3C",
"@	c #3A3A3A",
"#	c #2F2F2F",
"$	c #2A2A2A",
"%	c #282828",
"&	c #222222",
"*	c #272727",
"=	c #303030",
"-	c #2B2B2B",
";	c #2E2E2E",
">	c #3B3B3B",
",	c #292929",
"'	c #262626",
")	c #F20000",
"!	c #000000",
"~	c #F00000",
"{	c #F80000",
"]	c #F50000",
"^	c #2D2D2D",
"/	c #3D3D3D",
"(	c #323232",
"        .+@.#$%&&*+@.=$-        ",
"       ;+>.=$,&&*+@.=$$         ",
"      .+@.#$%&&*+@.=$-          ",
"     ;+>.=$,&&*+@.=$$           ",
"    .+@.#$%&&*+@.=$-            ",
"   #+>.=$,&&%+@.=$$             ",
"  .+@.#$%&&'+@.=$-              ",
" #+>.=$,&&%+@.=$-               ",
"))))))))))))))))))))))))))))))))",
"))))))))))))))))))))))))))))))))",
"))))))))))))))))))))))))))))))))",
"))!!!!!))!)))))!))!!!))!!!!!!!))",
"))!)))))))!)))!))))!)~))))!)))))",
"))!)))))))!)))!))))!))))))!)))))",
"))!))))))))!)!)))))!))))))!)))))",
"))!!!!!)))))!))))))!))))))!)))))",
"))!)))))))))!))))))!))))))!)))))",
"))!))))))))!)!)))))!))))))!)))))",
"))!)))))))!)))!))))!))))))!)))))",
"))!))){))!)])))!)))!))))))!)))))",
"))!!!!!))!)))))!))!!!)))))!)))))",
")))))))))]))))))))))))))))))))))",
"))))))))))))))))))))))))))))))))",
"))))))))))))))))))))))))))))))))",
"                =+@.=$%&&'+@.=$$",
"               ;+>.=$,&&'+@.=$$ ",
"              =+@.=$%&&'+@.=$$  ",
"             ;+>.=$,&&*+@.=$$   ",
"            =+@.=$%&&'+@.=$$    ",
"           ;+>.=$,&&*+@.=$$     ",
"          =+@.=$%&&'+@.=$$      ",
"^^^^^^^^^#/+(.-$&&%/>(=--^^^^^^ "};
