/* XPM */
static char * exit_xpm[] = {
"32 32 389 2",
"  	c #8DBF7B",
". 	c #8BBE7A",
"+ 	c #8ABD78",
"@ 	c #89BC77",
"# 	c #88BB76",
"$ 	c #87BB74",
"% 	c #86BA73",
"& 	c #84B872",
"* 	c #82B770",
"= 	c #81B66E",
"- 	c #81B56E",
"; 	c #7FB46C",
"> 	c #7EB36B",
", 	c #7DB36A",
"' 	c #7CB168",
") 	c #7AB067",
"! 	c #78AF65",
"~ 	c #78AE64",
"{ 	c #77AD62",
"] 	c #75AC61",
"^ 	c #74AB60",
"/ 	c #73AA5E",
"( 	c #71AA5D",
"_ 	c #70A95C",
": 	c #6FA75A",
"< 	c #6EA659",
"[ 	c #6CA557",
"} 	c #6BA456",
"| 	c #69A354",
"1 	c #69A353",
"2 	c #67A153",
"3 	c #66A051",
"4 	c #8CBE79",
"5 	c #88BC75",
"6 	c #86B973",
"7 	c #82B870",
"8 	c #82B66F",
"9 	c #80B46C",
"0 	c #7DB269",
"a 	c #7BB168",
"b 	c #7AB066",
"c 	c #79AF65",
"d 	c #76AD63",
"e 	c #75AD62",
"f 	c #74AB5F",
"g 	c #71A95D",
"h 	c #70A85C",
"i 	c #6FA85B",
"j 	c #6DA659",
"k 	c #6CA558",
"l 	c #6BA457",
"m 	c #6AA355",
"n 	c #68A254",
"o 	c #67A252",
"p 	c #65A050",
"q 	c #8BBD79",
"r 	c #89BC76",
"s 	c #89BB76",
"t 	c #87BA74",
"u 	c #84B871",
"v 	c #83B770",
"w 	c #81B66F",
"x 	c #80B56D",
"y 	c #7EB36A",
"z 	c #7BB268",
"A 	c #77AE64",
"B 	c #76AD62",
"C 	c #73AA5F",
"D 	c #6DA759",
"E 	c #68A253",
"F 	c #66A152",
"G 	c #639F4E",
"H 	c #8ABC77",
"I 	c #88BB75",
"J 	c #87BB75",
"K 	c #85B973",
"L 	c #82B66E",
"M 	c #81B56D",
"N 	c #7FB56C",
"O 	c #7DB369",
"P 	c #77AD63",
"Q 	c #75AD61",
"R 	c #72AB5F",
"S 	c #6DA658",
"T 	c #6AA456",
"U 	c #67A152",
"V 	c #66A151",
"W 	c #649F50",
"X 	c #639E4F",
"Y 	c #629E4D",
"Z 	c #87BA75",
"` 	c #7BB167",
" .	c #7AB167",
"..	c #73AB60",
"+.	c #72A95D",
"@.	c #6FA75B",
"#.	c #69A355",
"$.	c #67A253",
"%.	c #649F4E",
"&.	c #629D4D",
"*.	c #619C4B",
"=.	c #7FB46D",
"-.	c #76AC62",
";.	c #64A04F",
">.	c #639E4E",
",.	c #629D4C",
"'.	c #619C4C",
").	c #5F9C4A",
"!.	c #85BA73",
"~.	c #7DB46A",
"{.	c #7CB269",
"].	c #7CB268",
"^.	c #75AC62",
"/.	c #70A85B",
"(.	c #6EA75B",
"_.	c #6CA658",
":.	c #64A050",
"<.	c #619D4B",
"[.	c #5F9B4A",
"}.	c #5E9B49",
"|.	c #7EB46A",
"1.	c #79B067",
"2.	c #79AF66",
"3.	c #76AE63",
"4.	c #68A353",
"5.	c #68A153",
"6.	c #659F4F",
"7.	c #639F4F",
"8.	c #609C4A",
"9.	c #5D9947",
"0.	c #80B56E",
"a.	c #6EA85B",
"b.	c #609B4B",
"c.	c #5D9A47",
"d.	c #5B9946",
"e.	c #7EB46B",
"f.	c #6FA85C",
"g.	c #6DA65A",
"h.	c #5F9C49",
"i.	c #5F9B49",
"j.	c #5D9948",
"k.	c #5C9846",
"l.	c #5A9744",
"m.	c #5C8050",
"n.	c #282828",
"o.	c #5E8850",
"p.	c #628E53",
"q.	c #6DA15A",
"r.	c #609050",
"s.	c #659952",
"t.	c #5C8B4B",
"u.	c #558545",
"v.	c #374B31",
"w.	c #548C41",
"x.	c #599643",
"y.	c #5B804F",
"z.	c #77AB65",
"A.	c #76AA64",
"B.	c #75A962",
"C.	c #73A860",
"D.	c #75AB62",
"E.	c #4B6B40",
"F.	c #71A85D",
"G.	c #6CA359",
"H.	c #578248",
"I.	c #629850",
"J.	c #5D914B",
"K.	c #629B4C",
"L.	c #5F994A",
"M.	c #5D9749",
"N.	c #48703A",
"O.	c #5B9545",
"P.	c #599444",
"Q.	c #589342",
"R.	c #589543",
"S.	c #589542",
"T.	c #5B7F4E",
"U.	c #77AE63",
"V.	c #6FA45B",
"W.	c #57824A",
"X.	c #4B6C3F",
"Y.	c #6BA556",
"Z.	c #6AA354",
"`.	c #69A254",
" +	c #60974E",
".+	c #5B914A",
"++	c #49743B",
"@+	c #5A9845",
"#+	c #579541",
"$+	c #597E4D",
"%+	c #78AF63",
"&+	c #74AC5F",
"*+	c #72AB5E",
"=+	c #619150",
"-+	c #568148",
";+	c #669D52",
">+	c #60974D",
",+	c #5B8F48",
"'+	c #609C4C",
")+	c #48733A",
"!+	c #599743",
"~+	c #589641",
"{+	c #569441",
"]+	c #569440",
"^+	c #597E4C",
"/+	c #6B9E59",
"(+	c #4B6E3F",
"_+	c #598648",
":+	c #68A354",
"<+	c #66A252",
"[+	c #5F954B",
"}+	c #5A8F47",
"|+	c #609B4A",
"1+	c #5E9A49",
"2+	c #477139",
"3+	c #589541",
"4+	c #55933F",
"5+	c #54923E",
"6+	c #587D4B",
"7+	c #70A35E",
"8+	c #6FA25C",
"9+	c #6DA25B",
"0+	c #6DA159",
"a+	c #6DA458",
"b+	c #3A4F33",
"c+	c #47683B",
"d+	c #649F4F",
"e+	c #5D944A",
"f+	c #598E46",
"g+	c #5F9A49",
"h+	c #467138",
"i+	c #589642",
"j+	c #579440",
"k+	c #56933F",
"l+	c #53913D",
"m+	c #577C4A",
"n+	c #72AA5E",
"o+	c #6EA75A",
"p+	c #6EA759",
"q+	c #4F7542",
"r+	c #649950",
"s+	c #588847",
"t+	c #5C9449",
"u+	c #578E44",
"v+	c #5D9A48",
"w+	c #457137",
"x+	c #569540",
"y+	c #569340",
"z+	c #54933E",
"A+	c #53923D",
"B+	c #51903B",
"C+	c #567C49",
"D+	c #619350",
"E+	c #629750",
"F+	c #69A253",
"G+	c #527E43",
"H+	c #61984D",
"I+	c #5B9247",
"J+	c #578D44",
"K+	c #5C9946",
"L+	c #5B9844",
"M+	c #599744",
"N+	c #456F36",
"O+	c #55923E",
"P+	c #53923C",
"Q+	c #52903B",
"R+	c #508F3A",
"S+	c #557B48",
"T+	c #6EA45B",
"U+	c #6EA459",
"V+	c #6CA259",
"W+	c #6AA157",
"X+	c #6DA558",
"Y+	c #6AA256",
"Z+	c #537C44",
"`+	c #669F51",
" @	c #3C5734",
".@	c #5B9146",
"+@	c #558C43",
"@@	c #436F35",
"#@	c #52923C",
"$@	c #51913C",
"%@	c #50903A",
"&@	c #4F8E38",
"*@	c #547A48",
"=@	c #578148",
"-@	c #4B703F",
";@	c #5D9349",
">@	c #507E40",
",@	c #538442",
"'@	c #2A2E29",
")@	c #4C7E3C",
"!@	c #436E34",
"~@	c #282928",
"{@	c #51913B",
"]@	c #518F39",
"^@	c #4E8F38",
"/@	c #4F8E37",
"(@	c #6EA85A",
"_@	c #6DA557",
":@	c #649E4E",
"<@	c #609C4B",
"[@	c #5E9A48",
"}@	c #569541",
"|@	c #56943F",
"1@	c #4E8E37",
"2@	c #4D8D36",
"3@	c #659F50",
"4@	c #5E9B48",
"5@	c #5B9947",
"6@	c #5B9745",
"7@	c #55943F",
"8@	c #53913C",
"9@	c #4E8D36",
"0@	c #4D8C36",
"a@	c #4B8B35",
"b@	c #66A050",
"c@	c #609D4B",
"d@	c #579542",
"e@	c #52913B",
"f@	c #4F8F38",
"g@	c #4E8D37",
"h@	c #4C8C35",
"i@	c #4B8B33",
"j@	c #6FA95C",
"k@	c #5B9846",
"l@	c #5B9845",
"m@	c #518F3A",
"n@	c #4F8F39",
"o@	c #4D8E37",
"p@	c #4C8C36",
"q@	c #4B8B34",
"r@	c #4A8B33",
"s@	c #488932",
"t@	c #5A9844",
"u@	c #5A9643",
"v@	c #579642",
"w@	c #4F8E39",
"x@	c #4D8D37",
"y@	c #498932",
"z@	c #488930",
"A@	c #65A051",
"B@	c #65A04F",
"C@	c #629E4C",
"D@	c #509039",
"E@	c #4C8D36",
"F@	c #4A8B32",
"G@	c #488A32",
"H@	c #478830",
"I@	c #47872E",
"J@	c #609B49",
"K@	c #599644",
"L@	c #54923D",
"M@	c #508F39",
"N@	c #4B8C34",
"O@	c #498A31",
"P@	c #46872F",
"Q@	c #45872E",
"R@	c #5A9745",
"S@	c #55933E",
"T@	c #4B8A33",
"U@	c #498931",
"V@	c #46882F",
"W@	c #45862E",
"X@	c #43862C",
"Y@	c #69A455",
"Z@	c #65A151",
"`@	c #498A32",
" #	c #45862D",
".#	c #44862C",
"+#	c #43852B",
"@#	c #579441",
"##	c #4D8D35",
"$#	c #43842B",
"%#	c #418329",
"&#	c #5B9744",
"*#	c #4C8D35",
"=#	c #4B8C35",
"-#	c #4A8A33",
";#	c #46882E",
">#	c #43852C",
",#	c #42852B",
"'#	c #3F8228",
")#	c #5C9A47",
"!#	c #5C9847",
"~#	c #51903A",
"{#	c #4C8B34",
"]#	c #418429",
"^#	c #3E8227",
"  . + @ # $ % & * = - ; > , ' ) ! ~ { ] ^ / ( _ : < [ } | 1 2 3 ",
"4 + @ 5 $ 6 & 7 8 - 9 > 0 a b c ~ d e f / g h i j k l m n o 3 p ",
"q r s t 6 u v w x ; y 0 z b c A B ] ^ C g _ : D k } m n E F p G ",
"H I J K u v L M N > O a ) c ~ P Q ^ R g _ : D S T m n U V W X Y ",
"I Z % u v = x N > O `  .c ~ d ] ..C +._ @.< S l #.n $.V p %.&.*.",
"t 6 u * w x =.> , a ) c ~ B -.^ / g _ @.D [ } m n o V ;.>.,.'.).",
"!.& * 8 x ; ~.{.].) ! ~ B ^...C g /.(.j _.} #.E 2 V :.G &.<.[.}.",
"& v w x N |.0 ' 1.2.~ 3.] f C g h i j k } #.4.5.V 6.7.,.*.8.}.9.",
"v w 0.=.> 0 ' ) c ~ d Q ../ g i a.j _.} m E $.V :.G ,.*.b.}.c.d.",
"= M ; e.0 a ) c ~ P ^.^ / g f.i g.S } m E E 3 W >.,.*.h.i.j.k.l.",
"M m.n.n.n.n.n.o.p.n.q.C ( /.r.n.s.t.n.n.n.u.v.n.n.n.n.n.n.n.w.x.",
"9 y.n.z.A.B.C.D.^.E.n.F./.G.n.H.l m I.n.J.p K.L.M.N.n.O.P.Q.R.S.",
"> T.n.b ! U.P Q ^ V.n.W.i X.n.Y.Z.`. +n..+>.&.*.i.++n.k.@+x.S.#+",
"0 $+n.c %+d ] &+*+g =+n.-+n.;+#.`.U >+n.,+&.'+[.}.)+n.l.!+~+{+]+",
"' ^+n.n.n.n.n./+g _ @.(+n._+m :+<+V [+n.}+*.|+1+c.2+n.x.3+{+4+5+",
"b 6+n.7+8+9+0+h _ : a+b+n.c+E U 3 d+e+n.f+[.g+9.d.h+n.i+j+k+5+l+",
"c m+n.] ^ n+g i o+p+q+n.r+n.s+V :.>.t+n.u+i.v+k.@+w+n.x+y+z+A+B+",
"A C+n.../ ( /.o+j D+n.E+F+G+n.H+>.&.I+n.J+j.K+L+M+N+n.]+O+P+Q+R+",
"d S+n.T+U+V+W+X+Y+n.Z+E U `+ @n.,.*..@n.+@k.l.x.S.@@n.z+#@$@%@&@",
"] *@n.n.n.n.n.=@-@n.5.U V d+;@n.>@,@n.n.'@)@x.S.x+!@~@P+{@]@^@/@",
"^ / ( /.(@D _@l #.E U 3 p :@&.<@[.[@[@k.l.!+S.}@|@O+P+B+%@&@1@2@",
"/ g f.o+D k } #.n U 3 3@>.&.<.[.4@c.5@6@!+i+]+7@z+8@{@%@&@9@0@a@",
"g h (@< k } #.F+U b@6.G ,.c@[.}.9.k.l.x.d@]+|@z+l+e@R+f@g@0@h@i@",
"j@: D _.} #.n U 3 W >.&.'.[.4@c.k@l@x.S.]+k+z+l+{@m@n@o@p@q@r@s@",
"o+j _.} #.E o p 3@:@&.<.|+1+v+d.t@u@v@j+4+z+P+{@]@w@x@2@h@r@y@z@",
"S [ } | | U A@B@>.C@<.|+[@c.K+@+!+S.j+7@z+P+Q+D@&@x@E@a@F@G@H@I@",
"k } m n U V p %.Y *.J@1+c.k@6@K@S.x+k+L@P+e@M@&@o@E@N@r@O@z@P@Q@",
"} #.E <+b@3@G ,.*.|+}.9.K+R@K@S.]+4+S@l+e@M@&@g@E@N@T@U@H@V@W@X@",
"Y@n U Z@6.G ,.<@[.1+9.k.t@M+i+j+4+z+A+{@R+f@9@2@a@T@`@z@V@ #.#+#",
"n U b@W G &.<@8.[@9.k.t@x.3+@#k+z+#@B+M@f@g@##q@r@U@H@P@ #.#$#%#",
"F p 6.>.&.*.).}.K+k.&#x.S.]+4+L@P+Q+%@f@o@*#=#-#`@H@;# #>#,#%#'#",
"b@d+>.&.'+[.[@)#!#l@!+S.j+4+S@l+Q+~#&@g@p@{#-#U@z@;#W@.#+#]#'#^#"};
