/* XPM */
static char * exit_unlocked_xpm[] = {
"32 32 296 2",
"  	c #8DBF7B",
". 	c #8BBE7A",
"+ 	c #8ABD78",
"@ 	c #89BC77",
"# 	c #88BB76",
"$ 	c #87BB74",
"% 	c #86BA73",
"& 	c #84B872",
"* 	c #82B770",
"= 	c #81B66E",
"- 	c #81B56E",
"; 	c #7FB46C",
"> 	c #7EB36B",
", 	c #7DB36A",
"' 	c #7CB168",
") 	c #7AB067",
"! 	c #78AF65",
"~ 	c #78AE64",
"{ 	c #77AD62",
"] 	c #75AC61",
"^ 	c #74AB60",
"/ 	c #73AA5E",
"( 	c #71AA5D",
"_ 	c #70A95C",
": 	c #6FA75A",
"< 	c #6EA659",
"[ 	c #6CA557",
"} 	c #6BA456",
"| 	c #69A354",
"1 	c #69A353",
"2 	c #67A153",
"3 	c #66A051",
"4 	c #8CBE79",
"5 	c #88BC75",
"6 	c #86B973",
"7 	c #82B870",
"8 	c #82B66F",
"9 	c #80B46C",
"0 	c #7DB269",
"a 	c #7BB168",
"b 	c #7AB066",
"c 	c #79AF65",
"d 	c #76AD63",
"e 	c #75AD62",
"f 	c #74AB5F",
"g 	c #71A95D",
"h 	c #70A85C",
"i 	c #6FA85B",
"j 	c #6DA659",
"k 	c #6CA558",
"l 	c #6BA457",
"m 	c #6AA355",
"n 	c #68A254",
"o 	c #67A252",
"p 	c #65A050",
"q 	c #8BBD79",
"r 	c #89BC76",
"s 	c #89BB76",
"t 	c #87BA74",
"u 	c #84B871",
"v 	c #83B770",
"w 	c #81B66F",
"x 	c #80B56D",
"y 	c #7EB36A",
"z 	c #7BB268",
"A 	c #77AE64",
"B 	c #76AD62",
"C 	c #73AA5F",
"D 	c #6DA759",
"E 	c #68A253",
"F 	c #66A152",
"G 	c #639F4E",
"H 	c #8ABC77",
"I 	c #88BB75",
"J 	c #87BB75",
"K 	c #85B973",
"L 	c #82B66E",
"M 	c #81B56D",
"N 	c #7FB56C",
"O 	c #7DB369",
"P 	c #77AD63",
"Q 	c #75AD61",
"R 	c #72AB5F",
"S 	c #6DA658",
"T 	c #6AA456",
"U 	c #67A152",
"V 	c #66A151",
"W 	c #649F50",
"X 	c #639E4F",
"Y 	c #629E4D",
"Z 	c #87BA75",
"` 	c #7BB167",
" .	c #7AB167",
"..	c #73AB60",
"+.	c #72A95D",
"@.	c #6FA75B",
"#.	c #69A355",
"$.	c #67A253",
"%.	c #649F4E",
"&.	c #629D4D",
"*.	c #619C4B",
"=.	c #7FB46D",
"-.	c #76AC62",
";.	c #64A04F",
">.	c #639E4E",
",.	c #629D4C",
"'.	c #619C4C",
").	c #5F9C4A",
"!.	c #85BA73",
"~.	c #7DB46A",
"{.	c #7CB269",
"].	c #7CB268",
"^.	c #75AC62",
"/.	c #70A85B",
"(.	c #6EA75B",
"_.	c #6CA658",
":.	c #64A050",
"<.	c #619D4B",
"[.	c #5F9B4A",
"}.	c #5E9B49",
"|.	c #7EB46A",
"1.	c #79B067",
"2.	c #79AF66",
"3.	c #76AE63",
"4.	c #68A353",
"5.	c #68A153",
"6.	c #659F4F",
"7.	c #639F4F",
"8.	c #609C4A",
"9.	c #5D9947",
"0.	c #80B56E",
"a.	c #6EA85B",
"b.	c #609B4B",
"c.	c #5D9A47",
"d.	c #5B9946",
"e.	c #7EB46B",
"f.	c #6FA85C",
"g.	c #6DA65A",
"h.	c #5F9C49",
"i.	c #5F9B49",
"j.	c #5D9948",
"k.	c #5C9846",
"l.	c #5A9744",
"m.	c #77AE63",
"n.	c #74AC60",
"o.	c #659F50",
"p.	c #609B4A",
"q.	c #5E9A49",
"r.	c #5A9845",
"s.	c #599643",
"t.	c #7CB36A",
"u.	c #629E4C",
"v.	c #609C4B",
"w.	c #5F9A49",
"x.	c #5E9A47",
"y.	c #5C9946",
"z.	c #5B9844",
"A.	c #589542",
"B.	c #6BA556",
"C.	c #6AA354",
"D.	c #69A254",
"E.	c #579541",
"F.	c #7AB166",
"G.	c #78AF63",
"H.	c #74AC5F",
"I.	c #72AB5E",
"J.	c #609C4C",
"K.	c #5D9A48",
"L.	c #599743",
"M.	c #589641",
"N.	c #569441",
"O.	c #569440",
"P.	c #6EA759",
"Q.	c #68A354",
"R.	c #66A252",
"S.	c #649E4E",
"T.	c #589541",
"U.	c #55933F",
"V.	c #54923E",
"W.	c #73AC60",
"X.	c #649F4F",
"Y.	c #5A9745",
"Z.	c #589642",
"`.	c #579440",
" +	c #56933F",
".+	c #53913D",
"++	c #72AA5E",
"@+	c #6EA75A",
"#+	c #579641",
"$+	c #569540",
"%+	c #569340",
"&+	c #54933E",
"*+	c #53923D",
"=+	c #51903B",
"-+	c #69A253",
";+	c #599744",
">+	c #579441",
",+	c #55923E",
"'+	c #53923C",
")+	c #52903B",
"!+	c #508F3A",
"~+	c #72AA5C",
"{+	c #5E9A48",
"]+	c #52923C",
"^+	c #51913C",
"/+	c #50903A",
"(+	c #4F8E38",
"_+	c #6DA558",
":+	c #5E9B48",
"<+	c #5A9844",
"[+	c #51913B",
"}+	c #518F39",
"|+	c #4E8F38",
"1+	c #4F8E37",
"2+	c #6EA85A",
"3+	c #6DA557",
"4+	c #569541",
"5+	c #56943F",
"6+	c #4E8E37",
"7+	c #4D8D36",
"8+	c #5B9947",
"9+	c #5B9745",
"0+	c #55943F",
"a+	c #53913C",
"b+	c #4E8D36",
"c+	c #4D8C36",
"d+	c #4B8B35",
"e+	c #66A050",
"f+	c #609D4B",
"g+	c #579542",
"h+	c #52913B",
"i+	c #4F8F38",
"j+	c #4E8D37",
"k+	c #4C8C35",
"l+	c #4B8B33",
"m+	c #6FA95C",
"n+	c #5B9846",
"o+	c #5B9845",
"p+	c #518F3A",
"q+	c #4F8F39",
"r+	c #4D8E37",
"s+	c #4C8C36",
"t+	c #4B8B34",
"u+	c #4A8B33",
"v+	c #488932",
"w+	c #5A9643",
"x+	c #579642",
"y+	c #4F8E39",
"z+	c #4D8D37",
"A+	c #498932",
"B+	c #488930",
"C+	c #65A051",
"D+	c #65A04F",
"E+	c #509039",
"F+	c #4C8D36",
"G+	c #4A8B32",
"H+	c #488A32",
"I+	c #478830",
"J+	c #47872E",
"K+	c #609B49",
"L+	c #599644",
"M+	c #54923D",
"N+	c #508F39",
"O+	c #4B8C34",
"P+	c #498A31",
"Q+	c #46872F",
"R+	c #45872E",
"S+	c #55933E",
"T+	c #4B8A33",
"U+	c #498931",
"V+	c #46882F",
"W+	c #45862E",
"X+	c #43862C",
"Y+	c #69A455",
"Z+	c #65A151",
"`+	c #498A32",
" @	c #45862D",
".@	c #44862C",
"+@	c #43852B",
"@@	c #4D8D35",
"#@	c #43842B",
"$@	c #418329",
"%@	c #5B9744",
"&@	c #4C8D35",
"*@	c #4B8C35",
"=@	c #4A8A33",
"-@	c #46882E",
";@	c #43852C",
">@	c #42852B",
",@	c #3F8228",
"'@	c #5C9A47",
")@	c #5C9847",
"!@	c #51903A",
"~@	c #4C8B34",
"{@	c #418429",
"]@	c #3E8227",
"  . + @ # $ % & * = - ; > , ' ) ! ~ { ] ^ / ( _ : < [ } | 1 2 3 ",
"4 + @ 5 $ 6 & 7 8 - 9 > 0 a b c ~ d e f / g h i j k l m n o 3 p ",
"q r s t 6 u v w x ; y 0 z b c A B ] ^ C g _ : D k } m n E F p G ",
"H I J K u v L M N > O a ) c ~ P Q ^ R g _ : D S T m n U V W X Y ",
"I Z % u v = x N > O `  .c ~ d ] ..C +._ @.< S l #.n $.V p %.&.*.",
"t 6 u * w x =.> , a ) c ~ B -.^ / g _ @.D [ } m n o V ;.>.,.'.).",
"!.& * 8 x ; ~.{.].) ! ~ B ^...C g /.(.j _.} #.E 2 V :.G &.<.[.}.",
"& v w x N |.0 ' 1.2.~ 3.] f C g h i j k } #.4.5.V 6.7.,.*.8.}.9.",
"v w 0.=.> 0 ' ) c ~ d Q ../ g i a.j _.} m E $.V :.G ,.*.b.}.c.d.",
"= M ; e.0 a ) c ~ P ^.^ / g f.i g.S } m E E 3 W >.,.*.h.i.j.k.l.",
"M ; y 0 z b ! A m.^.n.C ( /.(.< [ } m E 2 V o.>.Y *.p.q.c.k.r.s.",
"9 > t.a ) c m.P ^.n.R g /.@.j k l m n U 3 p %.u.v.i.w.x.y.z.s.A.",
"> 0 a b ! m.P Q ^ / ( f.i < k B.C.D.F 3 :.>.&.*.i.i.c.k.r.s.A.E.",
"0 a F.c G.d ] H.I.g i i D k B.#.D.U V :.>.&.J.[.}.K.k.l.L.M.N.O.",
"' ) c A d ] ^ C g _ @.P.k } m Q.R.V 6.S.Y *.p.q.c.k.l.s.T.N.U.V.",
"b c ~ d ] W./ g _ : < [ l m E U 3 X.>.,.'.[.w.9.d.Y.L.Z.`. +V..+",
"c A d ] ^ ++g i @+P.[ } m E o V :.>.Y *.).i.K.k.r.L.#+$+%+&+*+=+",
"A B ] ../ ( /.@+j k } #.-+U 3 o.>.&.v.p.i.j.y.z.;+A.>+O.,+'+)+!+",
"d ] ..++~+h @+P.k } m E U 3 W >.,.*.p.{+K.k.l.s.A.O.%+&+]+^+/+(+",
"] ..++g h @+D _+l #.-+U V X.>.,.*.p.:+j.y.<+s.A.$+U.&+'+[+}+|+1+",
"^ / ( /.2+D 3+l #.E U 3 p S.&.v.[.{+{+k.l.L.A.4+5+,+'+=+/+(+6+7+",
"/ g f.@+D k } #.n U 3 o.>.&.<.[.:+c.8+9+L.Z.O.0+&+a+[+/+(+b+c+d+",
"g h 2+< k } #.-+U e+6.G ,.f+[.}.9.k.l.s.g+O.5+&+.+h+!+i+j+c+k+l+",
"m+: D _.} #.n U 3 W >.&.'.[.:+c.n+o+s.A.O. +&+.+[+p+q+r+s+t+u+v+",
"@+j _.} #.E o p o.S.&.<.p.q.K.d.<+w+x+`.U.&+'+[+}+y+z+7+k+u+A+B+",
"S [ } | | U C+D+>.u.<.p.{+c.y.r.L.A.`.0+&+'+)+E+(+z+F+d+G+H+I+J+",
"k } m n U V p %.Y *.K+q.c.n+9+L+A.$+ +M+'+h+N+(+r+F+O+u+P+B+Q+R+",
"} #.E R.e+o.G ,.*.p.}.9.y.Y.L+A.O.U.S+.+h+N+(+j+F+O+T+U+I+V+W+X+",
"Y+n U Z+6.G ,.v.[.q.9.k.<+;+Z.`.U.&+*+[+!+i+b+7+d+T+`+B+V+ @.@+@",
"n U e+W G &.v.8.{+9.k.<+s.T.>+ +&+]+=+N+i+j+@@t+u+U+I+Q+ @.@#@$@",
"F p 6.>.&.*.).}.y.k.%@s.A.O.U.M+'+)+/+i+r+&@*@=@`+I+-@ @;@>@$@,@",
"e+X.>.&.J.[.{+'@)@o+L.A.`.U.S+.+)+!@(+j+s+~@=@U+B+-@W+.@+@{@,@]@"};
