/* XPM */
static char * mary_right_xpm[] = {
"32 32 22 1",
" 	c #282828",
".	c #8E8384",
"+	c #6A5852",
"@	c #362923",
"#	c #8F7264",
"$	c #624434",
"%	c #B09182",
"&	c #D3AE98",
"*	c #795849",
"=	c #999B90",
"-	c #E8CABA",
";	c #BD9175",
">	c #9D7157",
",	c #825A41",
"'	c #414554",
")	c #282C35",
"!	c #0B0D12",
"~	c #202E24",
"{	c #70798D",
"]	c #354746",
"^	c #524F63",
"/	c #536164",
"       .+@@@@##++++             ",
"       +@$+#%&%%%%%%.           ",
"       +@$%%%%%#%..%%           ",
"        +%%%%##+#++#%%          ",
"        %%%%%**++++++%%         ",
"        =%%###*##++++*%#        ",
"        ..%%%%&--&&&%###        ",
"       ...##&------&&&##        ",
"       ..++%&------&&&;+        ",
"       .++#%&---&&&&;;;#        ",
"       +++%&&&&&&;;;;;>#        ",
"       %+%&&&-&&&&;;;;>#        ",
"      #;*#&&-&;**>>>>>>#        ",
"      #;##&&;>>>,*>>>$**        ",
"      %>&%&&>*++$,>>,,*+        ",
"       -&&&&&%*$*,;>$@+         ",
"       %;&;--&>,,;&;,$,         ",
"         ;;&-&&;>;&&>>>+        ",
"         ;;;;;>>>--&;>>+        ",
"         ;;;>,,,>>;>>,>         ",
"         ;;;>>,>;>$,,,$         ",
"         ;>>>>,,**$$*,          ",
"         #>,,,>>>,,,,$          ",
"       ')!@$,,>>>,,,+           ",
"       ')!!!@$,,,,,*            ",
"       '!!!!!!@$,$$@            ",
"       ')!!!!!!!!!!!~           ",
"   { ''')!!!!!!!!!!!)']         ",
" {{^'^^''!!!!!!!!!!!!)'^^')     ",
"{{{''^^^')!!!!!!!!!!!)))'^^/    ",
"{{{')'^^')!!!!!!!!!!!!))))'^^^  ",
"^^^')'^^'))!!!!!!!!!!!))'))'^)] "};
