/* XPM */
static char * mary_right_xpm[] = {
"32 32 38 1",
" 	c #2C2C2C",
".	c #8E8384",
"+	c #6A5852",
"@	c #362923",
"#	c #8F7264",
"$	c #3A3A3A",
"%	c #313131",
"&	c #303030",
"*	c #2A2A2A",
"=	c #2B2B2B",
"-	c #624434",
";	c #B09182",
">	c #D3AE98",
",	c #2E2E2E",
"'	c #3C3C3C",
")	c #3B3B3B",
"!	c #795849",
"~	c #2F2F2F",
"{	c #999B90",
"]	c #E8CABA",
"^	c #282828",
"/	c #BD9175",
"(	c #292929",
"_	c #222222",
":	c #9D7157",
"<	c #272727",
"[	c #825A41",
"}	c #262626",
"|	c #3E3E3E",
"1	c #232323",
"2	c #333333",
"3	c #414554",
"4	c #0B0D12",
"5	c #282C35",
"6	c #70798D",
"7	c #354746",
"8	c #524F63",
"9	c #536164",
"       .+@@@@##++++$%&*=        ",
"       +@-+#;>;;;;;;.**         ",
"      %+@-;;;;;#;..;;=          ",
"     ,')+;;;;##+#++#;;          ",
"    %'$%;;;;;!!++++++;;         ",
"   ~')%&{;;###!##++++!;#        ",
"  %'$%~*..;;;;>]]>>>;###        ",
" ~')%&*...##>]]]]]]>>>##        ",
"%'$%~*^..++;>]]]]]]>>>/+        ",
"')%&*(_.++#;>]]]>>>>///#       ~",
"$%~*^__+++;>>>>>>/////:#      &'",
"%&*(__^;+;>>>]>>>>////:#     ,''",
"~*^__<#/!#>>]>/!!::::::#    &'$%",
"*(__^'#/##>>/:::[!:::-!!   ,')%%",
"^__}'$;:>;>>:!++-[::[[!+  &'$%&*",
"__^'$%&]>>>>>;!-![/:-@+  ,')%&**",
"_}'$%&*;/>/]]>:[[/>/[-[)&'$%&*^_",
"^'$%&*=  //>]>>/:/>>:::+')%&*(__",
"'$%&**   /////:::]]>/::+$%&*^__}",
"$%&*=    ///:[[[::/::[:%%&*(__}|",
"%&**     ///::[:/:-[[[-*&*^__}''",
"&*=      /::::[[!!--![1**(__}'$2",
"**       #:[[[:::[[[[-__^__}'$%2",
"=      3 4@-[[:::[[[+$____}'$%&*",
"       3 444@-[[[[[!&*^__}'$%&**",
"       3444444@-[--&*(__}'$%&** ",
"       3544444444444^__}'$%&**  ",
"   6 333544444444444_37'$%&**   ",
" 6683883344444444444453883**    ",
"6663388835444444444445553889    ",
"666353883544444444444455553888  ",
"8883538835544444444444553553857 "};
