/* XPM */
static char * mary_left_xpm[] = {
"32 32 39 1",
" 	c #2C2C2C",
".	c #313131",
"+	c #3C3C3C",
"@	c #3A3A3A",
"#	c #2F2F2F",
"$	c #6A5852",
"%	c #8F7264",
"&	c #362923",
"*	c #8E8384",
"=	c #2E2E2E",
"-	c #3B3B3B",
";	c #B09182",
">	c #D3AE98",
",	c #624434",
"'	c #303030",
")	c #795849",
"!	c #999B90",
"~	c #2A2A2A",
"{	c #E8CABA",
"]	c #292929",
"^	c #282828",
"/	c #222222",
"(	c #BD9175",
"_	c #272727",
":	c #9D7157",
"<	c #825A41",
"[	c #262626",
"}	c #2B2B2B",
"|	c #323232",
"1	c #3E3E3E",
"2	c #333333",
"3	c #0B0D12",
"4	c #414554",
"5	c #282C35",
"6	c #354746",
"7	c #70798D",
"8	c #524F63",
"9	c #536164",
"0	c #2D2D2D",
"        .+@.#$$$$%%&&&&$*       ",
"       =+-.*;;;;;;>;%$,&$       ",
"      .+@.#;;**;%;;;;;,&$       ",
"     =+-.';;%$$%$%%;;;;$        ",
"    .+@.#;;$$$$$$));;;;;        ",
"   #+-.'%;)$$$$%%)%%%;;!        ",
"  .+@.#~%%%;>>>{{>;;;;**        ",
" #+-.'~]%%>>>{{{{{{>%%***       ",
".+@.#~^/$(>>>{{{{{{>;$$**       ",
"+-.'~]//%(((>>>>{{{>;%$$*      #",
"@.#~^//_%:(((((>>>>>>;$$$     '+",
".'~]//^+%:((((>>>>{>>>;$;    =++",
"#~^//_+@%::::::))(>{>>%)(%  '+@.",
"~]//^+@.)),:::)<:::(>>%%(% =+-..",
"^//[+@.'$)<<::<,$$):>>;>:;'+@.'~",
"//^+@.'~~$&,:(<),);>>>>>{=+-.'~~",
"/[+@.'~~ <,<(>(<<:>{{(>(;+@.'~^/",
"^+@.'~} $:::>>(:(>>{>((++-.'~]//",
"+@.'~~  $::(>{{:::(((((|@.'~^//[",
"@.'~}    :<::(::<<<:(((..'~]//[1",
".'~~     ,<<<,:(:<::(((~'~^//[++",
"'~}       <),,))<<::::(~~]//[+@2",
"~~        ,<<<<:::<<<:%/^//[+@.2",
"}          $<<<:::<<,&3/4/[+@.'~",
"            )<<<<<,&333/4[+@.'~~",
"             ,,<,&3333334+@.'~~ ",
"            3333333333354@.'~~  ",
"         64 333333333335444~7   ",
"      4884533333333333344884877 ",
"    9884555333333333335488844777",
"  888455553333333333335488454777",
"06584554553333333333355488454888"};
