/* XPM */
static char * mary_xpm[] = {
"32 32 33 1",
" 	c None",
".	c #0B0D12",
"+	c #0D1809",
"@	c #142308",
"#	c #202E24",
"$	c #1A320B",
"%	c #362923",
"&	c #282C35",
"*	c #1C3704",
"=	c #21351C",
"-	c #334633",
";	c #354746",
">	c #414554",
",	c #354D23",
"'	c #624434",
")	c #355C12",
"!	c #524F63",
"~	c #525F4D",
"{	c #6A5852",
"]	c #536164",
"^	c #795849",
"/	c #825A41",
"(	c #527A12",
"_	c #8F7264",
":	c #70798D",
"<	c #9D7157",
"[	c #837E6C",
"}	c #8E8384",
"|	c #B09182",
"1	c #BD9175",
"2	c #999B90",
"3	c #D3AE98",
"4	c #E8CABA",
"             {{{{__%%%%{}       ",
"           }||||||3|_{'%{       ",
"           ||}}|_|||||'%{       ",
"          ||_{{_{__||||{        ",
"         ||{{{{{{^^|||||        ",
"        _|^{{{{__^___||2        ",
"        ___|333443||||}}        ",
"        __3334444443__}}}       ",
"        {13334444443|{{}}       ",
"        _11133334443|_{{}       ",
"        _<11111333333|{{{       ",
"        _<111133334333|{|       ",
"        _<<<<<<^^13433_^1_      ",
"        ^^'<<<^/<<<133__1_      ",
"        {^//<</'{{^<33|3<|      ",
"         {%'<1/^'^|333334       ",
"         /'/131//<344131|       ",
"        {<<<331<1334311         ",
"        {<<1344<<<11111         ",
"         </<<1<<///<111         ",
"         '///'<1</<<111         ",
"          /^''^^//<<<<1         ",
"          '////<<<///<_         ",
"           {///<<<//'%.&>       ",
"            ^/////'%...&>       ",
"            %''/'%......>       ",
"           #...........&>       ",
"         ;>&...........&>>> :   ",
"     &>!!>&............>>!!>!:: ",
"    ]!!>&&&...........&>!!!>>:::",
"  !!!>&&&&............&>!!>&>:::",
" ;&!>&&>&&...........&&>!!>&>!!!"};
