/* XPM */
static char * snow_00_xpm[] = {
"16 16 2 1",
" 	c #ECEBE7",
".	c #8AA1F6",
"                ",
"                ",
"                ",
"     ..         ",
"       .        ",
"       .    .   ",
"  .    .    .   ",
"                ",
"  .             ",
"                ",
"            .   ",
"    ..       .  ",
"   .         .  ",
"   .            ",
"   .            ",
"                "};
