/* XPM */
static char * background_xpm[] = {
"32 32 11 1",
" 	c #282828",
".	c #3D3937",
"+	c #3C3836",
"@	c #3C3937",
"#	c #3D3A38",
"$	c #3C3837",
"%	c #292929",
"&	c #3F3B39",
"*	c #2A2A2A",
"=	c #2B2B2B",
"-	c #3E3A38",
"        ........        ........",
"        .++++++.        .++++++.",
"        .++++++.        .+++++++",
"        @++++++.        .+++++++",
"        .++++++.        .+++++++",
"        .++++++.        .+++++++",
"        .++++++.        .+++++++",
"        +......#        ........",
"..$+++++        ........%%%%%%%%",
".+++++++        .+++++++        ",
".+++++++        .+++++++        ",
".+++++++        .+++++++        ",
".+++++++        .+++++++        ",
".+++++++        .+++++++        ",
".+++++++        .+++++++        ",
".......&        ........*%%%%%%%",
"*%%%%%%*+++++++.%      %........",
"%      %+++++++.        .++++++.",
"%      %+++++++.        .++++++.",
"%      %+++++++.        .++++++.",
"%      %+++++++.        .++++++.",
"%      %+++++++.        .++++++.",
"%      %+++++++.        .++++++.",
"%%%%%%%*.++++++.=%%%%%%%.......-",
"........%%%%%%%*........%%%%%%%*",
".+++++++%      %.++++++.%      %",
".+++++++%       .++++++.%      %",
".+++++++%       .++++++.%      %",
".+++++++%       .++++++.%      %",
".+++++++%       .++++++.%      %",
".+++++++%       .++++++.%      %",
".++++++.%       .......-%%%%%%%*"};
