/* XPM */
static char * wall_xpm[] = {
"32 32 2 1",
" 	c #282828",
".	c #393533",
"                                ",
"                                ",
"                                ",
"                                ",
"                                ",
"                                ",
"                                ",
"                                ",
"                ........        ",
"                ........        ",
"                ........        ",
"                ........        ",
"                ........        ",
"                ........        ",
"                ........        ",
"                ........        ",
"        ........                ",
"        ........                ",
"        ........                ",
"        ........                ",
"        ........                ",
"        ........                ",
"        ........                ",
"        ........                ",
"                                ",
"                                ",
"                                ",
"                                ",
"                                ",
"                                ",
"                                ",
"                                "};
